<?xml version="1.0" encoding="UTF-8" standalone="no"?>
<svg
  width="1000"
  height="1000"
  viewBox="0 0 264.58333 264.58333"
  version="1.1"
  xmlns="http://www.w3.org/2000/svg">
  <g transform="translate(-6.30224,60.463493)">
    <path
      style="fill:#ffffff;fill-opacity:1;stroke:#000000;stroke-width:1.6483;stroke-dasharray:none;stroke-opacity:1"
      d="m 118.51447,69.09198 16.9654,-2.348775 0.41529,2.086249 -0.12523,1.503829 -0.46779,1.664895 -0.81036,1.825956 -1.1675,1.537561 -2.5717,1.133072 -2.59111,0.533789 -2.77935,0.08995 -2.27278,-0.376382 -1.94475,-0.986908 -1.61672,-1.597433 -1.09074,-1.464478 -1.12953,-2.663045 -0.0145,-0.449464 3.10738,-0.700472 2.41739,-0.528165" />
    <path
      style="fill:#ffffff;fill-opacity:1;stroke:#000000;stroke-width:1.6483;stroke-dasharray:none;stroke-opacity:1"
      d="m 158.67334,68.983181 -16.9654,-2.348775 -0.41529,2.086249 0.12523,1.503829 0.46779,1.664895 0.81036,1.825956 1.1675,1.537561 2.5717,1.133072 2.59111,0.533789 2.77935,0.08995 2.27278,-0.376382 1.94475,-0.986908 1.61672,-1.597433 1.09074,-1.464478 1.12953,-2.663045 0.0145,-0.449464 -3.10738,-0.700472 -2.41739,-0.528165" />
  </g>
</svg>
